<?xml version="1.0" standalone="no"?>
<!DOCTYPE svg PUBLIC "-//W3C//DTD SVG 1.1//EN" "http://www.w3.org/Graphics/SVG/1.1/DTD/svg11.dtd" >
<svg xmlns="http://www.w3.org/2000/svg">
<metadata></metadata>
<defs>
<font id="baar_metanoiabold" horiz-adv-x="1337" >
<font-face units-per-em="2048" ascent="1638" descent="-410" />
<missing-glyph horiz-adv-x="589" />
<glyph horiz-adv-x="2048" />
<glyph horiz-adv-x="2048" />
<glyph unicode="&#xd;" horiz-adv-x="589" />
<glyph unicode=" "  horiz-adv-x="589" />
<glyph unicode="&#x09;" horiz-adv-x="589" />
<glyph unicode="&#xa0;" horiz-adv-x="589" />
<glyph unicode="!" horiz-adv-x="669" d="M231 211l27 25q158 0 260 4l27 -25q2 -66 4 -199l-23 -24q-139 -2 -268 -6l-25 24q4 90 -2 201zM258 1454l23 21q139 2 307 10q-66 -569 -74 -1032l-18 -21q-104 -4 -203 -12l-21 24q10 596 -14 1010z" />
<glyph unicode="&#x22;" horiz-adv-x="806" d="M78 1364v41q102 27 168 27q27 0 90 -7q10 -41 10 -53l-100 -530q-43 -6 -58 -4q-23 14 -69 264q-41 229 -41 262zM385 1401q96 31 145 31q8 0 117 -5q10 -47 10 -100q0 -94 -41 -240q-55 -202 -61 -235q-43 -6 -90 -6q-25 137 -49 274q-29 168 -31 281z" />
<glyph unicode="#" horiz-adv-x="1439" d="M4 426l2 164l326 4l35 194l-308 -6l2 164l334 6l74 414l217 2l-74 -414l197 4l76 414l213 2l-72 -411l299 4l-2 -164l-324 -6l-36 -193l303 6l-4 -164l-328 -6l-80 -442l-215 -2l80 440l-199 -2l-82 -442l-219 -4l86 442zM547 598l201 4l34 193l-200 -4z" />
<glyph unicode="$" horiz-adv-x="1034" d="M-27 70q4 10 50 161l40 17q88 -57 189 -86l131 454q-178 94 -238 146q-111 96 -112 221q-4 201 188 293q147 70 371 65l31 138l28 14l162 2q-33 -88 -59 -174q104 -25 213 -72q-27 -92 -41 -157l-47 -11q-80 51 -168 82l-121 -413q193 -94 256 -146q117 -96 119 -233 q4 -188 -170 -299q-152 -97 -359 -97q-33 0 -80 2q-16 -63 -34 -141l-21 -20q-76 2 -162 -2q33 88 60 180q-123 29 -226 76zM283 1006q2 -84 161 -181l109 359q-106 -10 -182 -54q-90 -50 -88 -124zM408 139q305 25 301 211q-3 105 -185 197z" />
<glyph unicode="%" horiz-adv-x="2103" d="M106 850q-4 211 78 350q104 180 336 180q346 0 354 -419q4 -213 -75 -349q-105 -176 -336 -176q-348 0 -357 414zM336 842q4 -252 137 -252q127 0 162 160q16 74 12 254q-4 227 -135 227q-184 0 -176 -389zM582 -14q111 221 327 684q211 451 310 686l28 22l207 2 q-316 -655 -633 -1372l-24 -22h-215zM1163 393q-4 219 78 355q104 178 342 178q188 0 279 -138q68 -104 69 -274q4 -215 -76 -352q-104 -180 -333 -180q-193 0 -283 135q-72 104 -76 276zM1393 385q6 -250 139 -250q180 0 174 402q-6 239 -137 239q-182 0 -176 -391z" />
<glyph unicode="&#x26;" horiz-adv-x="1302" d="M-2 307q0 143 117 252q59 55 211 141q-154 178 -156 310q-2 150 127 241q119 86 285 86q147 0 249 -69q113 -76 115 -209q4 -186 -299 -369l238 -264q80 119 133 240l47 8q66 -82 129 -144q-66 -123 -180 -254q57 -61 260 -245l-45 -33h-275l-30 8q-43 57 -84 113 q-219 -143 -424 -144q-195 0 -312 103q-106 92 -106 229zM260 324q2 -80 60.5 -127t144.5 -47q102 0 258 102l-277 315q-188 -125 -186 -243zM418 1036q2 -82 114 -211q178 113 177 226q0 61 -41.5 98t-104.5 37t-104 -42t-41 -108z" />
<glyph unicode="'" horiz-adv-x="452" d="M-59 956q92 283 139 504l24 17q143 8 295 24q-164 -344 -225 -514l-22 -18q-98 -4 -211 -13z" />
<glyph unicode="(" horiz-adv-x="841" d="M117 485q-6 287 153 549q129 211 387 441q16 10 250 18q-518 -481 -508 -1020q10 -481 453 -889l-209 -12l-27 10q-489 406 -499 903z" />
<glyph unicode=")" horiz-adv-x="864" d="M-98 -430q516 479 506 1022q-10 477 -451 885l207 12l29 -8q500 -414 499 -903v-33q0 -422 -397 -821l-78 -82q-51 -47 -96 -68z" />
<glyph unicode="*" horiz-adv-x="946" d="M-63 1217q59 61 110 141l49 8q98 -63 221 -141q-16 141 -38 270q104 2 258 12q-25 -137 -45 -278q113 74 217 147l53 -4q27 -37 82 -117l-15 -36q-135 -59 -268 -119q137 -51 289 -105l-100 -153l-56 -2q-109 78 -207 143q14 -123 33 -248l-22 -26q-98 0 -236 -7 q27 137 53 275q-123 -78 -223 -148h-51q-47 76 -100 146q139 53 321 125q-150 55 -325 117z" />
<glyph unicode="+" horiz-adv-x="1439" d="M59 475l4 178l494 -6l10 461l230 4l-11 -461h500l-4 -178h-498l-8 -483l-229 -4l8 483z" />
<glyph unicode="," horiz-adv-x="489" d="M29 -305q102 313 137 502l20 20q143 4 299 14q-119 -245 -221 -505l-26 -21q-84 0 -209 -10z" />
<glyph unicode="-" horiz-adv-x="966" d="M104 451q4 25 11 186l22 16q61 0 158 -2h145q238 0 432 11q-2 -66 -10 -203h-198q-315 0 -560 -8z" />
<glyph unicode="." horiz-adv-x="565" d="M111 12q6 102 2 203l24 21q152 2 264 6l27 -21q-4 -110 -2 -198l-20 -23q-141 -2 -275 -6z" />
<glyph unicode="/" horiz-adv-x="987" d="M-106 -283q119 215 440 867q143 287 418 870l26 21l244 4q-561 -1094 -854 -1739l-29 -25q-131 2 -245 2z" />
<glyph unicode="0" horiz-adv-x="1318" d="M12 639q-29 768 637 768q297 0 445 -203q121 -164 131 -438q28 -789 -629 -789q-559 0 -584 662zM311 643q18 -487 301 -487q338 0 316 596q-19 481 -291 481q-348 0 -326 -590z" />
<glyph unicode="1" horiz-adv-x="856" d="M72 1184q10 84 12 141l20 23q238 29 484 63l33 -16q-19 -209 -19 -766q0 -412 16 -625q-137 -2 -313 -14q14 760 10 1212q-109 -20 -211 -39z" />
<glyph unicode="2" horiz-adv-x="1243" d="M35 96l4 39q301 293 588 582q82 82 110 125q47 72 45 151q-4 215 -231 215q-197 0 -389 -178l-56 23q2 66 5 194q23 31 79 62q182 100 412 100q211 0 341 -102.5t134 -292.5q2 -127 -86 -250q-45 -66 -189.5 -210t-355.5 -361q311 6 678 26l21 -26q-4 -72 -6 -162 l-27 -29q-100 2 -350 6q-215 2 -338 2q-109 0 -328 -10l-24 16z" />
<glyph unicode="3" horiz-adv-x="1273" d="M35 84q4 72 12 174l51 21q174 -121 359 -121q160 0 266 69q121 80 119 215q-2 125 -101 191q-86 57 -231 57q-63 0 -186 -35l-74 88q168 156 231 220q127 125 217 227q-127 -2 -614 -21q8 86 8 174l23 23q682 -10 927 -2l56 -96q-82 -94 -205 -217q-102 -100 -205 -201 q193 -35 311 -123q145 -106 150 -276q2 -93 -51 -185q-162 -287 -641 -286q-233 0 -408 86z" />
<glyph unicode="4" horiz-adv-x="1273" d="M-14 344q2 141 6 154q8 29 98 143l103 133q143 182 421 572l27 16q133 2 381 10q-18 -438 -21 -829q94 2 224 10q-11 -72 -23 -193q-68 4 -104 5q-33 0 -103 -3q-2 -145 0 -339l-22 -23q-129 -2 -244 -8l-27 22q8 147 15 344zM299 530l426 7l12 569z" />
<glyph unicode="5" horiz-adv-x="1273" d="M51 66l12 174l48 20q160 -96 327 -96q168 0 285 76q127 86 125 231q-2 139 -109 213q-94 68 -252 68q-78 0 -139 -19q-43 -14 -149 -65l-88 63q23 190 51 596l24 23q248 4 865 18q-4 -59 -13 -172l-22 -22q-125 2 -180 2q-94 0 -414 -9l-21 -237q88 10 160 10 q276 0 438 -137q147 -127 148 -311q0 -203 -178 -349q-199 -161 -535 -161q-203 0 -368 65z" />
<glyph unicode="6" horiz-adv-x="1269" d="M33 580q-6 369 172 579q199 233 602 234q162 0 285 -41q-10 -63 -41 -178h-50q-94 43 -174 43q-225 0 -342 -121q-98 -100 -149 -320q186 119 383 119q233 0 368 -131q123 -121 123 -297q0 -195 -143 -332q-162 -153 -432 -153q-295 0 -453 172q-143 158 -149 426z M342 526q0 -135 55 -229q74 -131 238 -131q129 0 210 79t77 206q-2 121 -71 187.5t-192 66.5q-197 0 -317 -179z" />
<glyph unicode="7" horiz-adv-x="1075" d="M23 1180q2 84 6 161l28 19h23q80 0 231.5 -2t227.5 -2q166 0 426 10l30 -10q49 -94 49 -111q-156 -301 -309 -602q-182 -361 -270 -623l-27 -18q-127 -2 -332 -14q350 625 601 1177q-553 0 -652 -8z" />
<glyph unicode="8" horiz-adv-x="1271" d="M10 379q-2 127 78 219q59 68 188 137q-186 125 -190 291q-2 190 195 291q158 80 370 80q203 0 340 -78q166 -92 170 -275q2 -158 -217 -294q256 -127 260 -328q4 -219 -207 -342q-175 -100 -419 -100q-225 0 -379 90q-184 106 -189 309zM311 395q2 -113 78 -175t199 -62 q150 0 237 80q78 72 78 174q0 96 -67 161q-76 72 -205 72q-139 0 -228 -61q-94 -68 -92 -189zM362 1008q0 -78 60 -131q68 -59 180 -60q131 0 207 66q68 55 68 139q0 78 -63.5 136.5t-174.5 58.5q-131 0 -209 -66q-68 -59 -68 -143z" />
<glyph unicode="9" horiz-adv-x="1267" d="M14 911q0 195 150 334q166 154 442 154q303 0 453 -178q129 -156 133 -433q8 -350 -168 -565q-197 -241 -580 -241q-162 0 -344 57l-14 18q6 76 10 166l45 23q147 -90 289 -90q379 0 465 454q-174 -115 -387 -114q-236 0 -371 129q-123 115 -123 286zM301 930 q0 -104 66 -174q72 -80 194 -80q223 0 324 178q2 45 2 61q-2 127 -82 214.5t-205 87.5q-139 0 -223 -93q-76 -80 -76 -194z" />
<glyph unicode=":" horiz-adv-x="581" d="M164 236l26 24q143 0 261 4l28 -24q-2 -43 0 -213l-18 -25q-143 -4 -271 -6l-24 22q0 88 -2 218zM166 782v217l24 25h48q82 0 217 4l22 -27q0 -94 4 -213l-24 -22l-269 -6z" />
<glyph unicode=";" horiz-adv-x="581" d="M80 -301q100 338 129 510l22 20q141 6 299 15q-121 -252 -223 -514l-22 -23q-86 0 -205 -8zM227 782q2 55 2 217l23 25h74q55 -2 188 4l29 -27q-6 -119 0 -215l-23 -22l-272 -6z" />
<glyph unicode="&#x3c;" horiz-adv-x="1636" d="M41 584l4 168l1505 643l-2 -187l-1241 -536l1221 -500l-2 -186z" />
<glyph unicode="=" horiz-adv-x="1441" d="M152 311l4 170l1087 -4l-2 -168zM158 623l4 168l1089 -5l-4 -168z" />
<glyph unicode="&#x3e;" horiz-adv-x="1646" d="M45 -35l2 189l1243 536l-1222 498l2 186l1486 -596l-4 -170z" />
<glyph unicode="?" horiz-adv-x="1005" d="M70 1139q8 68 24 229l15 16q164 90 358 91q195 0 317 -89q135 -96 140 -270q2 -158 -152 -371q-88 -125 -113 -163q-53 -92 -67 -179l-19 -24q-123 -2 -245 -10q25 152 78 243q72 104 143 209q92 137 90 248q-4 217 -231 217q-78 0 -146.5 -30.5t-191.5 -116.5zM293 12 q4 145 4 209l27 27q150 4 260 12l28 -24q-4 -111 -4 -207l-20 -25q-145 -8 -271 -16z" />
<glyph unicode="@" horiz-adv-x="1880" d="M82 487q-6 352 283 588q276 227 663 228q283 0 475 -134q211 -147 217 -401q4 -211 -118 -399q-145 -221 -377 -222q-113 0 -199 105q-113 -94 -262 -94q-162 0 -250 98q-80 88 -80 229q0 184 121 328q135 158 338 158q127 0 225 -82l10 41l33 20l230 -6 q-49 -76 -105 -301q-49 -209 -49 -291v-35q4 -18 23 -18q76 0 151 111q55 82 84 176q25 82 25 164q0 178 -117 286q-131 123 -379 123q-303 0 -524 -196q-227 -201 -224 -484q6 -248 207 -389q184 -127 463 -127q338 0 674 256l45 -6l88 -92q-382 -301 -792 -301 q-354 0 -601 166q-272 184 -278 501zM676 479q0 -172 125 -172q166 0 239 285q6 16 7 39q0 66 -31 117q-38 63 -101 63q-104 0 -174 -111q-66 -102 -65 -221z" />
<glyph unicode="A" d="M-72 -10q223 528 287 684q152 371 256 663l29 21q186 6 336 14l24 -20q63 -219 213 -656q121 -356 232 -663l-31 -29l-262 -10l-25 22q-39 133 -119 400q-236 -2 -503 -8q-82 -227 -134 -383l-24 -23q-121 -2 -279 -12zM430 580q178 0 385 6l-172 518z" />
<glyph unicode="B" horiz-adv-x="1357" d="M84 -6q6 223 16 653q12 373 13 416q0 96 -11 299q309 10 519 10q536 0 536 -322q0 -185 -252 -313q326 -88 326 -319q0 -176 -148 -289q-137 -105 -358 -125q-123 -10 -307 -10h-334zM381 387q0 -80 4 -213h55q39 -2 56 -2q217 0 313 45q123 57 123 205q0 201 -342 201 q-133 0 -131 0q-25 45 -45 161h55q145 0 262 54q145 66 146 178q0 186 -283 186h-66q-76 0 -133 -4q-14 -633 -14 -811z" />
<glyph unicode="C" horiz-adv-x="1345" d="M20 645v30q0 332 210 529q220 205 612 205q172 0 379 -63q6 -78 12 -240l-33 -21l-156 23l-40 104q-104 31 -170 31q-254 0 -394 -174q-121 -153 -121 -391v-23q6 -227 130 -362q131 -143 362 -143q111 0 211 40q82 35 240 136q-19 -168 -23 -238l-14 -18 q-209 -96 -453 -97q-342 0 -542.5 179.5t-209.5 492.5z" />
<glyph unicode="D" horiz-adv-x="1544" d="M84 -8q24 402 24 823q0 166 -4 334q0 41 -16 192l41 23l70 -2h34q73 0 187 6q154 8 223 8q319 0 485 -94q143 -80 218 -233q65 -133 65 -299v-5q0 -174 -68 -319q-100 -221 -313 -324q-168 -80 -446 -98zM383 174q272 2 399 45q184 61 271 246q59 127 59 287v20 q-4 231 -131 336q-121 98 -373 98q-66 0 -207 -8q-19 -385 -19 -829q0 -96 1 -195z" />
<glyph unicode="E" horiz-adv-x="1179" d="M84 -8q29 414 29 782q0 78 -5.5 231.5t-5.5 231.5q0 57 4 98l23 21q305 0 915 8q-6 -57 -20 -172l-18 -23q-74 0 -289 9q-174 6 -289 6h-18q-10 -174 -15 -379h15q95 -1 236.5 -1t330.5 1q-12 -84 -19 -170l-18 -23q-70 2 -256 9q-152 4 -258 4h-35q-6 -211 -6 -445 q76 0 207 -2q150 -2 209 -2q127 0 225 6q-6 -76 -12 -168l-27 -20q-82 -2 -160 -2q-750 0 -743 0z" />
<glyph unicode="F" horiz-adv-x="1040" d="M82 -8q25 287 29 756q2 166 2 298q0 197 -4 314q60 1 135.5 1t165.5 -1q203 -2 272 -2q160 0 326 6q-12 -88 -19 -176l-24 -21q-82 0 -275 11q-178 8 -276 8q-6 -133 -15 -406q168 0 506 6q-2 -8 -22 -168l-23 -22q-53 0 -237 4q-132 4 -224 4q-5 -123 -5 -240 q0 -186 12 -358q-86 -2 -324 -14z" />
<glyph unicode="G" horiz-adv-x="1533" d="M-10 657v17q0 338 239 538q236 197 629 197q244 0 469 -86q-16 -104 -31 -223q-244 131 -436 131q-279 0 -422 -151q-137 -146 -137 -393v-21q4 -233 143.5 -376t376.5 -143q104 0 238 35q6 180 6 284v48l-160 -2l47 154l35 20q147 -4 172 -4q10 0 207 8 q-23 -261 -23 -562v-48l-18 -17q-258 -90 -514 -90q-354 0 -578 172q-238 186 -243 512z" />
<glyph unicode="H" horiz-adv-x="1536" d="M70 -10q23 401 24 682v127q1 143 1 252q0 218 -3 303q90 2 305 14q-12 -336 -16 -537l379 -2q162 0 295 7v116q0 276 -8 404q143 6 305 14q-27 -489 -27 -863q0 -91 2 -175q2 -154 14 -342q-123 -2 -313 -15q10 227 23 674h-338q-190 0 -336 -4q-3 -146 -3 -271 q0 -218 9 -372q-147 -2 -313 -12z" />
<glyph unicode="I" horiz-adv-x="591" d="M-4 1184l45 157l37 21q123 0 358 8q-28 -446 -28 -826v-26q0 -256 12 -512q-133 -4 -307 -12q23 414 23 866q0 160 -3 326z" />
<glyph unicode="J" horiz-adv-x="724" d="M-61 6q0 12 2 187l14 -3q88 -18 127 -18q123 0 170 85q35 63 35 547q0 165 -4 378l-187 -2l47 157l37 19l152 -2q47 0 254 12q-10 -231 -25 -952q-4 -219 -100 -318q-101 -108 -342 -108h-4q-74 0 -176 18z" />
<glyph unicode="K" horiz-adv-x="1310" d="M84 -8q28 542 28 971q0 98 -1 190q-2 100 -19 209q115 0 322 12q-14 -221 -21 -553q109 102 324 326q49 57 96 115q74 82 100 96q96 2 314 12q-201 -211 -586 -622q266 -322 674 -703l-15 -39q-203 -4 -307 -14l-32 14q-190 209 -572 631q-1 -130 -1 -241q0 -222 5 -371 l-20 -21q-137 -2 -289 -12z" />
<glyph unicode="L" horiz-adv-x="1038" d="M88 2q30 664 30 1038q0 64 -1 119q-2 100 -19 207q109 2 332 12q-39 -516 -41 -1183q244 6 610 20q-4 -65 -14 -190l-18 -23q-146 2 -366 2t-513 -2z" />
<glyph unicode="M" horiz-adv-x="1847" d="M4 -14q23 182 68 829q14 168 39 524l36 21q143 2 312 10l24 -20q55 -152 164 -385q143 -307 187 -408q82 170 247 469q147 268 166 309l21 21q94 2 350 14q10 -680 49 -1364q-121 -2 -303 -12v-1v1027q-453 -813 -483 -830q-43 0 -142 -6l-20 21q-27 88 -244 532 l-145 299q-23 -332 -51 -1016l-19 -22q-123 -2 -256 -12z" />
<glyph unicode="N" horiz-adv-x="1550" d="M84 -8q22 414 22 903v43q0 307 -6 403l37 23h24q79 0 265 10l35 -20q10 -16 651 -1024q0 330 -16 1007l22 21q100 2 252 12q-22 -675 -22 -1125q0 -129 2 -239q-127 -2 -314 -12l-28 20q-125 203 -334 521q-246 371 -332 507q0 -326 18 -1017l-22 -21q-113 -2 -254 -12z " />
<glyph unicode="O" horiz-adv-x="1615" d="M10 651v27q0 319 183 516q203 217 573 217q332 0 520 -190q176 -180 184 -482v-28q0 -322 -178 -518q-198 -218 -573 -218q-332 0 -520 191q-178 180 -189 485zM319 668q6 -223 99 -357q105 -157 310 -157h3q229 0 346 182q92 149 92 373v28q-14 498 -407 498 q-242 0 -354 -170q-89 -138 -89 -372v-25z" />
<glyph unicode="P" horiz-adv-x="1298" d="M121 -10q14 283 16 676q2 141 2 261q0 280 -10 445q92 2 283 10q166 8 256 9q236 0 379 -84q174 -100 178 -314v-6q0 -119 -72 -221q-100 -145 -279 -201q-135 -43 -368 -45l-72 168q180 4 258 23q143 31 205 125q41 65 41 142v7q-4 233 -313 234q-78 0 -191 -11 q-13 -378 -13 -697q0 -263 9 -486l-22 -23q-135 -2 -287 -12z" />
<glyph unicode="Q" horiz-adv-x="1630" d="M20 655q-1 17 -1 34q0 318 180 511q199 215 573 215q328 0 516 -186q184 -178 193 -477v-29q0 -223 -87 -376q-94 -163 -302 -294q274 -82 505 -127q-61 -92 -114 -176l-37 -14q-244 84 -649 221q-72 23 -99 23h-6q-330 0 -512 217q-154 184 -160 458zM326 664 q6 -219 100 -355q108 -153 310 -153h3q229 0 344 180q91 148 91 375v24q-6 215 -101 348q-108 154 -313 154q-227 0 -342 -178q-92 -145 -92 -367v-28z" />
<glyph unicode="R" horiz-adv-x="1308" d="M102 -8q4 78 23 737q2 71 2 151q0 214 -12 494q84 0 278 8q162 6 252 7q535 0 543 -359q2 -154 -129 -280q-117 -113 -275 -156q186 -229 295 -356q72 -74 236 -242q-119 -4 -338 -14l-29 12q-70 96 -475 584q6 6 -61 127q8 -1 19 -1q54 0 175 25q160 33 211 72 q35 29 59.5 88t24.5 110q-4 125 -96 175q-70 38 -217 38h-8q-59 0 -166 -4q-12 -424 -12 -733q0 -282 10 -469q-127 -2 -310 -14z" />
<glyph unicode="S" horiz-adv-x="1171" d="M8 61q14 84 23 191l49 18q188 -112 357 -112h3q133 0 219 49q100 57 99 166q-4 125 -191 202q-172 70 -346 140q-186 106 -190 299v8q0 199 194 301q160 86 387 86q162 0 379 -59l17 -19q-12 -86 -21 -172l-41 -18q-195 88 -338 88q-121 0 -200 -43q-93 -48 -93 -142 q0 -112 193 -188q178 -72 356 -141q193 -106 197 -293v-9q0 -218 -191 -337q-165 -103 -417 -103q-229 0 -445 88z" />
<glyph unicode="T" horiz-adv-x="1073" d="M-68 1171q2 57 11 164l18 23h209q348 0 907 4q-12 -111 -12 -166l-23 -22h-94q-141 0 -299 -3q-16 -392 -16 -749q0 -214 6 -416q-123 -2 -320 -14q30 519 30 992q0 102 -1 202q-205 -6 -416 -15z" />
<glyph unicode="U" horiz-adv-x="1531" d="M104 440v60q0 122 6 322q5 165 4 277q0 60 -1 105q0 68 -9 135l39 21q98 0 283 10q-4 -100 -20 -747q-4 -109 -5 -115q0 -162 54 -244q71 -112 259 -112h3q236 0 311 165q39 88 43 320q2 177 2 323q0 244 -6 402q84 2 268 14q-12 -235 -18 -839q-2 -279 -133 -408 q-162 -156 -492 -156q-213 0 -360 74q-180 90 -215 272q-10 47 -13 121z" />
<glyph unicode="V" horiz-adv-x="1224" d="M-100 1341l45 23h42q88 0 212 6l24 -20q98 -373 328 -1055q133 338 383 1040l20 23q121 2 273 12q-57 -156 -283 -733q-242 -621 -250 -627q-72 -2 -329 -12l-25 20q-131 391 -387 1172q-14 43 -53 151z" />
<glyph unicode="W" horiz-adv-x="1890" d="M-78 1339l35 21q141 4 272 12l21 -26q29 -158 90 -472l117 -542q102 307 284 919l23 23q70 2 266 10l27 -22q8 -129 217 -934l162 583q37 135 98 416l22 25q117 2 295 12q-104 -299 -198 -657q-66 -223 -183 -682l-26 -23q-178 -4 -348 -12l-27 24q-31 190 -88 445 q-86 389 -94 424q-61 -184 -180 -588q-31 -86 -86 -268l-23 -25q-94 -2 -322 -12l-24 26q-57 242 -168 723q-49 205 -72 293q-41 166 -90 307z" />
<glyph unicode="X" horiz-adv-x="1169" d="M-125 -8q182 246 518 721q-201 328 -424 645q215 12 310 26l30 -18q47 -86 262 -442q283 426 299 440q41 -2 117 -2t187 2q-167 -215 -480 -637l451 -713q-106 -6 -307 -20l-29 16q-94 166 -287 494q-168 -244 -309 -479l-29 -21q-127 -2 -309 -12z" />
<glyph unicode="Y" horiz-adv-x="1165" d="M-96 1356q106 2 305 10l31 -12q66 -139 311 -566q217 348 336 560l26 18q72 0 275 8q-180 -270 -514 -794q-5 -163 -5 -301.5t5 -253.5l-23 -21q-41 -2 -286 -16q20 293 20 434q0 84 -6 139q-242 428 -475 795z" />
<glyph unicode="Z" horiz-adv-x="1124" d="M-90 111q178 233 518 702l262 373q-57 2 -119 2q-68 0 -208 -8.5t-211 -8.5l-125 3q18 90 28 163l27 23q127 -5 298 -5q86 0 183 1q393 4 488 4l39 -90q-59 -72 -170 -213q-152 -197 -621 -879q111 0 354.5 14t386.5 13q-10 -43 -34 -182l-29 -19q-111 5 -265 5 q-115 0 -255 -3q-259 -3 -411 -3q-76 0 -124 1z" />
<glyph unicode="[" horiz-adv-x="667" d="M131 -430q16 197 25 485q25 1073 16 1407q186 0 510 13q-8 -76 -12 -162q-129 0 -213 -2q-45 -582 -41 -1577q106 2 231 10q-8 -78 -10 -166q-59 0 -506 -8z" />
<glyph unicode="\" horiz-adv-x="987" d="M-70 1481l240 2l33 -19q156 -395 567 -1259q68 -145 215 -453l-37 -22l-198 -2l-27 20q-373 879 -793 1733z" />
<glyph unicode="]" horiz-adv-x="681" d="M-41 -428q8 76 10 162l107 -2q59 0 123 2q27 338 28 788q0 59 -4 789q-106 -2 -229 -11q8 80 10 166q59 0 506 9q-19 -201 -25 -465q-25 -1083 -16 -1428q-186 0 -510 -10z" />
<glyph unicode="^" horiz-adv-x="1579" d="M188 645l428 727l203 4l385 -712l-252 -5l-243 461l-273 -471z" />
<glyph unicode="_" horiz-adv-x="1079" d="M-55 -150h1167v-104h-1167v104z" />
<glyph unicode="`" horiz-adv-x="1013" d="M264 1458l314 -6l24 -14q18 -61 107 -279l-31 -26q-86 2 -166 -5q-16 16 -90 121q-47 68 -158 209z" />
<glyph unicode="a" horiz-adv-x="1200" d="M8 436v27q0 266 191 416q184 147 489 147q176 0 250 -33q100 -43 104 -164q0 -14 -2 -172q-4 -172 -4 -227q0 -356 2 -405l-14 -39q-74 4 -127 27.5t-106 49.5q-160 -88 -299 -88q-217 0 -351 136q-125 127 -133 325zM289 446q4 -129 69.5 -206.5t182.5 -77.5 q113 0 219 80q6 367 6 501v52q0 16 -22.5 37.5t-55.5 21.5q-16 1 -32 1q-170 -1 -268 -101q-100 -102 -99 -281q-1 -13 0 -27z" />
<glyph unicode="b" horiz-adv-x="1241" d="M96 102q28 549 28 911q0 83 -1 156q-2 121 -17 277l275 55l27 -24l-19 -510q164 71 291 71h4q223 0 356 -135q125 -127 129 -328v-13q0 -208 -125 -352q-129 -150 -358 -198q-105 -24 -263 -24h-13q-66 0 -91 6q-31 4 -110.5 42t-99.5 56zM375 164q53 -6 94 -6 q197 0 311 110q110 106 109 284v13q-2 127 -78 212t-199 85q-98 0 -225 -69q-6 -209 -12 -629z" />
<glyph unicode="c" horiz-adv-x="987" d="M8 473q0 225 158 385q176 178 469 178q158 0 295 -45q-11 -94 -17 -164l-43 -18q-104 53 -206 53q-174 0 -279 -123q-94 -109 -94 -262q0 -135 76 -225q86 -100 235 -100q131 0 328 141q-14 -160 -19 -225q-127 -92 -354 -93q-262 0 -414 154q-135 139 -135 344z" />
<glyph unicode="d" horiz-adv-x="1257" d="M2 455v21q0 276 203 425q190 141 512 141q41 0 88 -2q1 41 1 81q0 161 -13 319q117 20 299 59q-27 -472 -27 -942v-65q0 -250 16 -459l-26 -27q-66 2 -125.5 23.5t-116.5 42.5q-168 -90 -313 -90q-225 0 -363 139q-129 131 -135 334zM285 465q4 -129 71 -209 q72 -86 195 -86q125 0 237 82q7 253 7 546v74q-49 2 -80 2q-209 0 -320 -104q-110 -100 -110 -283v-22z" />
<glyph unicode="e" horiz-adv-x="1140" d="M16 457v27q0 232 131 386q156 182 435 183q178 0 309 -87t190 -247q-28 -42 -94 -103q-229 -55 -686 -157q33 -309 334 -309q100 0 183 34.5t216 128.5q-18 -139 -24 -235q-55 -49 -201 -80q-113 -23 -203 -23q-260 0 -416 121q-164 129 -174 361zM299 643l479 102 q-103 150 -209 150q-186 0 -270 -252z" />
<glyph unicode="f" horiz-adv-x="745" d="M0 856q6 53 10 125l33 27h109q16 375 204 497q129 84 252 84q47 0 127 -6q-14 -49 -16 -80q-2 -18 -4 -82h-43h-8q-53 0 -112 -25q-63 -28 -93 -73q-38 -56 -38 -237q0 -32 1 -68l278 8q-4 -53 -10 -156l-24 -20q-78 0 -244 -4q-4 -209 -4 -384q0 -118 2 -220 q0 -68 12 -232q-55 0 -305 -18q23 340 27 846q-70 -4 -127 -4z" />
<glyph unicode="g" horiz-adv-x="1214" d="M8 426v27q0 272 191 424q183 149 485 149h4q176 0 250 -33q100 -45 104 -168q-2 -133 -2 -362v-42q0 -119 -8 -396q-6 -174 -133 -297q-45 -43 -135 -80q-98 -41 -180 -45h-26q-81 0 -185 10q-152 18 -236 53l13 242q193 -125 378 -125q43 0 74 10q160 49 168 238 q-143 -70 -278 -70q-217 0 -351 135q-125 129 -133 330zM289 438q4 -131 67 -207q67 -81 182 -81h3q119 0 225 79q2 131 2 271.5t-2 290.5q0 18 -22.5 38.5t-55.5 22.5q-16 1 -31 1q-171 0 -269 -101q-100 -103 -100 -286q0 -14 1 -28z" />
<glyph unicode="h" horiz-adv-x="1300" d="M92 -8q14 334 23 796q3 137 3 253q0 247 -12 399q123 20 312 59q-23 -246 -29 -569q215 108 374 108h3q352 0 358 -327q1 -33 1 -72q0 -213 -23 -619q-23 -152 -262 -180l12 176q5 67 5 154q0 65 -3 141q-6 145 -12 293q-2 113 -29 168q-41 84 -145 84q-115 0 -281 -106 q-3 -166 -3 -318q0 -228 7 -426q-92 -2 -299 -14z" />
<glyph unicode="i" horiz-adv-x="636" d="M117 -8q26 364 26 593v17q0 219 -20 406q160 25 268 47l33 -17q-25 -342 -25 -662q0 -189 9 -370q-154 -4 -291 -14zM168 1161q33 143 37 158q16 80 20 149q86 4 299 15l-125 -271l-28 -24q-53 -6 -203 -27z" />
<glyph unicode="j" horiz-adv-x="614" d="M-72 -285q123 31 168 88q37 47 45 160q13 199 13 500q0 117 -2 250q-2 141 -15 295q133 20 307 51q-32 -365 -32 -830q0 -31 2 -92t2 -92q0 -150 -41 -238q-53 -119 -197 -182q-27 -12 -205 -43q-14 51 -45 133zM156 1161q33 139 34 158q16 78 21 147q88 4 301 15 l-125 -271l-29 -22q-53 -8 -202 -27z" />
<glyph unicode="k" horiz-adv-x="1116" d="M104 -10q29 582 29 917q0 276 -16 518l20 21q72 12 279 51q-16 -313 -25 -799q109 102 350 338l312 13q-270 -268 -437 -441q287 -369 508 -518l-10 -41q-84 -16 -254 -61l-39 14q-203 223 -434 500q0 -270 4 -492q-88 -6 -287 -20z" />
<glyph unicode="l" horiz-adv-x="575" d="M96 1444q135 23 299 55q-8 -143 -14 -721v-134q0 -327 8 -574l2 -64q-104 -4 -287 -12q14 492 15 762q0 379 -23 688z" />
<glyph unicode="m" horiz-adv-x="1970" d="M94 -10q20 284 20 607q0 77 -1 157q-2 121 -17 229l45 18q55 -2 106.5 -20t100.5 -35q186 98 400 98q166 0 278 -120q205 112 412 112h4q166 0 255 -84t93 -227q-3 -96 -3 -238q0 -189 5 -460l-23 -21q-96 -2 -272 -12q37 365 37 514q0 92 -14 92q-2 127 -44 188.5 t-143 61.5q-135 0 -250 -76q4 -83 4 -225q0 -71 -1 -157q-1 -77 -1 -143q0 -153 5 -243q-84 -2 -295 -14q21 342 21 551q0 42 -1 78q-4 239 -159 239h-1q-119 0 -266 -94q-5 -225 -5 -403q0 -214 7 -359q-125 -2 -297 -14z" />
<glyph unicode="n" horiz-adv-x="1302" d="M92 979q41 20 60 20q47 0 194 -49q176 88 420 88q340 0 344 -315q1 -34 0 -82q0 -71 -1 -172q-3 -168 -3 -254q2 -90 10 -203q-153 -6 -266 -14l-25 22q0 86 9 314q6 152 6 259v50q-2 94 -45 152q-46 65 -127 65h-2q-137 0 -279 -94q-4 -180 -5 -338q0 -222 9 -401 l-22 -19q-135 -4 -275 -14q15 369 15 559v59q-2 158 -17 367z" />
<glyph unicode="o" horiz-adv-x="1198" d="M6 461q-1 16 -1 33q0 239 140 380q156 160 451 160q250 0 391 -133q133 -127 141 -350q1 -17 1 -34q0 -240 -132 -382q-149 -162 -442 -162q-256 0 -397.5 129t-151.5 359zM289 446q6 -137 69 -221q72 -94 199 -94q290 0 290 353q0 19 -1 38q-12 352 -268 352 q-290 0 -290 -386q0 -21 1 -42z" />
<glyph unicode="p" horiz-adv-x="1249" d="M90 -420q27 459 27 853q0 113 -2 220q-2 182 -17 344l29 25q139 -14 223 -59q174 90 357 90q211 0 344 -146q125 -135 125 -325q0 -233 -187 -392q-215 -182 -608 -182q-1 -51 -1 -100q0 -146 5 -277l-25 -18zM381 168q25 -2 43 -2q213 0 341 108q124 106 124 294v12 q-2 127 -68 206q-69 88 -186 88q-111 0 -244 -77q-10 -246 -10 -629z" />
<glyph unicode="q" horiz-adv-x="1253" d="M84 709q106 193 328 262q156 49 436 49h113h124l27 -19q-14 -236 -20 -602l86 43q-11 -81 -13 -157q-25 -29 -75 -80q4 -143 4 -397v-183l-21 -20l-270 -33q12 248 16 473q-174 -80 -309 -80q-236 0 -371 156q-116 134 -116 333q0 142 61 255zM307 451q0 -125 64 -205 q74 -90 213 -90q113 0 233 75l4 617q-135 -2 -203 -14q-112 -21 -186 -80q-125 -100 -125 -303z" />
<glyph unicode="r" horiz-adv-x="770" d="M94 987q86 18 293 57l-6 -149q78 86 178 141q113 61 215 62q18 0 76 -11q-18 -65 -55 -206q-125 -18 -136 -21q-68 -12 -120 -47q-104 -63 -142 -211q-22 -92 -22 -257v-15q0 -152 8 -326q-100 -2 -287 -12q16 441 16 669q0 57 -1 101q0 35 -17 225z" />
<glyph unicode="s" horiz-adv-x="954" d="M-16 -16q8 45 41 178q66 -14 133 -29q80 -16 135 -16q111 0 199 39q100 45 100 121v6q-2 76 -141 118q-236 72 -261 84q-141 72 -145 222v11q0 174 186 259q141 67 345 67h6q125 0 237 -34l15 -19q-6 -49 -21 -188q-152 69 -263 69h-3q-84 0 -146 -26q-74 -33 -71 -88 q2 -80 153 -119q223 -57 283 -90q125 -72 129 -221v-7q0 -137 -152 -255q-178 -137 -532 -138q-92 0 -213 33z" />
<glyph unicode="t" horiz-adv-x="755" d="M-8 852l2 39l26 113l146 24l6 227l287 56q-20 -113 -21 -285q72 0 256 6q-10 -84 -12 -176h-242q-6 -412 -6 -590q0 -76 58.5 -108.5t205.5 -44.5l-10 -111q-94 -20 -164 -20q-358 0 -358 247l-2 623h-172z" />
<glyph unicode="u" horiz-adv-x="1277" d="M90 997l23 19q111 6 262 20l24 -20v-19q0 -70 -12 -178q-14 -135 -16 -188q-3 -121 -3 -197q0 -38 1 -65q2 -94 46 -155.5t126 -61.5q117 0 270 104q2 37 8 170q4 109 4 172q0 186 -8 399l23 19q29 2 274 20q-16 -367 -16 -642q0 -218 10 -378l-27 -30q-70 8 -125 32 q-4 2 -108 58q-205 -102 -404 -103q-340 0 -346 314q2 79 2 184q0 210 -8 526z" />
<glyph unicode="v" horiz-adv-x="1060" d="M-63 1012q154 10 284 24l31 -16q31 -117 225 -746q66 180 133 359q78 215 123 371l25 16h54q87 0 204 4q-203 -471 -393 -995l-23 -19q-45 -2 -303 -24l-21 22q-193 621 -339 1004z" />
<glyph unicode="w" horiz-adv-x="1691" d="M-72 1014q184 8 277 14l22 -20q53 -285 195 -758q74 248 201 731l26 20q59 0 146 5q111 6 143 6l23 -21q33 -147 102 -385q88 -297 108 -379q66 139 115 404q42 222 42 348q0 16 -1 31q90 2 301 20q-22 -178 -100 -495q-63 -266 -203 -517l-22 -18h1l-313 -10l-24 22 q-29 133 -90 357q-72 258 -95 352l-82 -307q-43 -127 -118 -391l-23 -19q-52 1 -103 1q-101 0 -196 -3l-20 23q-59 221 -312 989z" />
<glyph unicode="x" horiz-adv-x="987" d="M-76 -10q266 317 426 528q-100 156 -332 494q188 12 308 24l20 -14q102 -197 166 -299q119 172 180 281l27 18q133 2 280 8q-162 -201 -376 -491q221 -317 372 -523q-32 -1 -311 -24l-22 18q-76 137 -195 330q-70 -104 -211 -320l-27 -14q-55 0 -305 -16z" />
<glyph unicode="y" horiz-adv-x="995" d="M-51 1012q190 16 291 28l26 -20q82 -252 240 -692q86 223 250 682l24 18q106 2 262 8q-206 -440 -415 -942q-68 -147 -187 -456l-30 -23q-139 -4 -293 -12q119 168 176 262q10 16 67 131q-35 98 -178 450q-70 178 -233 566z" />
<glyph unicode="z" horiz-adv-x="978" d="M16 117q16 37 90 123q53 61 107 122q80 104 344 502q-152 -4 -473 -16l-23 24l19 127l24 25q195 -4 548 -4h253l25 -47q-186 -276 -555 -813q70 0 270 12q136 9 239 9q34 0 64 -1l-35 -166l-28 -20q-145 6 -414 6q-283 0 -412 6l-34 17z" />
<glyph unicode="{" horiz-adv-x="755" d="M92 483l2 86q102 29 137 125q29 74 27 228q-2 16 -2 71q-2 49 -2 80q0 229 88 316q61 61 174 79q37 6 203 17v-88q-139 -37 -182 -105q-37 -55 -45 -237q-2 -129 -5 -256q-4 -102 -49 -164q-35 -51 -127 -105q94 -57 129 -110q37 -59 39 -170q2 -49 -2 -151.5t-2 -153.5 q2 -123 39 -178q47 -66 174 -95v-88q-250 6 -330 49q-115 61 -118 258q-2 53 2 160t2 160q-2 117 -19 160q-31 84 -133 112z" />
<glyph unicode="|" horiz-adv-x="491" d="M129 1503l217 -4v-1950l-213 5z" />
<glyph unicode="}" horiz-adv-x="768" d="M6 -334q137 37 182 105q37 55 43 237q2 129 5 256q6 104 49 164q37 51 129 104q-94 59 -129 111q-37 59 -39 170q-2 51 2 152.5t2 152.5q-2 123 -41 178q-45 66 -172 95v88q248 -6 330 -49q115 -61 118 -259q0 -53 -3 -159.5t-3 -159.5q4 -117 19 -160q33 -84 135 -112 l-2 -86q-102 -29 -139 -125q-27 -74 -25 -228q0 -14 2 -71q2 -49 2 -80q0 -229 -88 -316q-61 -59 -174 -80q-37 -6 -203 -16v88z" />
<glyph unicode="~" horiz-adv-x="1572" d="M193 545q139 164 313 164q98 0 250.5 -59.5t212.5 -59.5q72 0 217 141l92 -149q-162 -156 -322 -156q-98 0 -239.5 59.5t-212.5 59.5q-55 0 -125 -60l-90 -90z" />
<glyph unicode="&#xa1;" horiz-adv-x="589" d="M23 -6q66 567 75 1075q14 0 240 16q-10 -627 16 -1058l-22 -21q-139 -2 -309 -12zM61 1266q4 115 5 198l20 23l270 16l25 -22q-6 -99 -2 -203l-29 -25q-141 -4 -258 -12z" />
<glyph unicode="&#xa2;" horiz-adv-x="1030" d="M51 489q0 231 150 388q170 176 450 163q8 41 29 127l20 21q76 -2 170 4q-29 -92 -53 -170q80 -20 152 -51l-31 -164l-49 -19q-55 43 -119 70l-215 -713q18 -2 35 -2q94 0 171 29t200 113q-18 -127 -23 -222l-16 -16q-174 -76 -340 -76q-29 0 -74 4q-18 -74 -35 -145 l-24 -16h-168q37 100 69 194q-145 66 -225 201q-74 127 -74 280zM313 504q4 -147 97 -295l194 668q-295 -80 -291 -373z" />
<glyph unicode="&#xa3;" horiz-adv-x="1034" d="M-51 580q2 49 6 137l18 22l131 -2q-2 119 -2 162q12 444 535 444q168 0 332 -53l16 -20q-12 -80 -18 -146l-41 -16q-154 66 -281 66q-160 0 -221 -91q-43 -63 -49 -198q-2 -41 0 -144q209 4 489 17q-10 -76 -14 -140l-23 -22q-131 0 -452 -4q-8 -211 -82 -428 q213 0 651 20l27 -22q-6 -74 -8 -142l-23 -18q-307 -2 -965 -18q111 279 131 604z" />
<glyph unicode="&#xa4;" horiz-adv-x="1439" d="M2 203l166 147q-100 150 -105 277q-2 158 117 319l-160 141l154 138l164 -146q172 96 354 97q158 0 316 -86l170 151l153 -133l-168 -145q102 -150 105 -267q2 -102 -29 -180q-25 -63 -90 -151l164 -146l-156 -137l-170 149q-170 -94 -344 -94q-160 0 -319 86l-172 -153z M283 639q2 -147 109.5 -242.5t264.5 -95.5q166 0 281 110.5t113 270.5q-4 145 -111.5 236.5t-263.5 91.5q-164 0 -280.5 -107.5t-112.5 -263.5z" />
<glyph unicode="&#xa5;" horiz-adv-x="1165" d="M-80 1300q104 6 303 21l27 -16q125 -236 303 -549q209 326 324 547l28 18q115 0 271 12q-213 -324 -365 -557q84 0 178 6q-10 -70 -16 -135l-21 -20q-111 2 -235 0q-20 -35 -41 -70q0 -27 -4 -78q90 0 311 10q-10 -74 -16 -137l-19 -18q-127 0 -276 -2q-2 -205 4 -314 l-23 -20q-106 0 -282 -10q6 90 14 338l-305 -7q8 55 16 132l21 22l272 2l-2 62q-16 33 -47 84l-256 -7q10 61 16 131l23 21h131q-178 297 -334 534z" />
<glyph unicode="&#xa7;" horiz-adv-x="1077" d="M-4 596q-2 168 219 305q-119 109 -121 207q-2 170 158 258q129 72 317 72q156 0 336 -58l15 -18q-10 -82 -17 -148l-37 -18q-158 74 -291 74q-100 0 -161.5 -37t-61.5 -90q0 -68 92 -121q53 -33 238 -107q162 -63 231 -116q104 -82 107 -201q2 -166 -213 -307 q141 -117 143 -230q4 -176 -170 -268q-139 -72 -334 -72t-391 84q8 88 8 168l48 19q170 -109 327 -109q109 0 176.5 42t67.5 102q0 72 -94 129q-57 35 -246 108q-166 63 -236 121q-109 84 -110 211zM233 641q2 -68 78 -117q27 -16 146 -69l184 -82q137 86 135 178 q-2 76 -162 158q-92 39 -245 106q-137 -80 -136 -174z" />
<glyph unicode="&#xa8;" horiz-adv-x="634" d="M-86 1212q12 63 33 224q90 2 321 12l-112 -191l-31 -22q-55 -6 -211 -23zM346 1212q14 63 35 224q90 2 321 12l-112 -191l-31 -22q-55 -6 -213 -23z" />
<glyph unicode="&#xa9;" horiz-adv-x="2000" d="M111 666q-6 295 247.5 501.5t626.5 206.5q365 0 612 -200q242 -197 248 -484q6 -295 -246.5 -499.5t-625.5 -204.5q-360 0 -608 198.5t-254 481.5zM254 668q6 -240 214 -409t513 -169q309 0 518 176t203 422q-4 244 -207 413t-510 169q-311 0 -524 -178.5t-207 -423.5z M403 674q-4 203 165 343t427 140q270 0 488 -194l-185 -150q-90 78 -149 107q-70 35 -158 34q-139 0 -228 -81.5t-87 -194.5q4 -113 94 -188.5t229 -75.5q145 0 301 143l199 -135q-225 -211 -510 -211q-252 0 -416.5 132t-169.5 331z" />
<glyph unicode="&#xaa;" horiz-adv-x="724" d="M-39 909q-4 125 145 193q94 41 291 72q-12 94 -90 94q-88 0 -223 -56l-39 23q4 51 6 96q104 61 301 62q244 0 250 -213q-6 -143 2 -463q-106 -2 -198 -8l-23 24q-88 -37 -172 -37q-111 0 -179.5 58.5t-70.5 154.5zM170 924q2 -100 90 -101q61 0 127 43l6 189 q-225 -35 -223 -131z" />
<glyph unicode="&#xab;" horiz-adv-x="940" d="M10 506l2 18q135 199 224 369l26 16q82 0 223 2l-241 -383q66 -117 239 -381q-154 -4 -239 -6l-23 17q-78 141 -98 176q-57 98 -113 172zM414 522v17q72 117 209 360l28 16q59 0 238 3q-121 -166 -244 -375q72 -117 240 -387l-230 -4l-22 16q-78 143 -219 354z" />
<glyph unicode="&#xac;" horiz-adv-x="1435" d="M-53 461l2 162l1497 26l-12 -647l-217 -4l8 485z" />
<glyph unicode="&#xad;" horiz-adv-x="966" d="M104 451q4 25 11 186l22 16q61 0 158 -2h145q238 0 432 11q-2 -66 -10 -203h-198q-315 0 -560 -8z" />
<glyph unicode="&#xae;" horiz-adv-x="2000" d="M111 664q-6 293 245.5 501.5t624.5 208.5q365 0 611.5 -198.5t252.5 -485.5q6 -291 -247.5 -497.5t-624.5 -206.5q-360 0 -608 198.5t-254 479.5zM254 668q6 -238 213 -408t510 -170q309 0 519 176t204 420t-209 414t-508 170q-311 0 -523 -178.5t-206 -423.5zM582 229 v899l442 7q393 0 399 -240q2 -123 -168 -207q82 -66 103 -166q23 -123 24 -127q18 -74 64 -149l-293 -8q-39 51 -55 122q-14 63 -27 127q-33 121 -139 121h-70l-2 -375zM864 788q131 0 166 5q113 16 111 88q0 75 -119 75q-43 0 -158 -2v-166z" />
<glyph unicode="&#xaf;" horiz-adv-x="634" d="M-109 1221q16 86 19 125l22 18q461 0 703 16q-17 -80 -21 -131l-24 -14z" />
<glyph unicode="&#xb0;" horiz-adv-x="765" d="M-61 1147q-2 131 110.5 231.5t269.5 100.5q152 0 258.5 -83t108.5 -214q2 -133 -110.5 -233.5t-270.5 -100.5q-152 0 -258 84t-108 215zM162 1163q0 -66 43 -106.5t106 -40.5q57 0 105.5 46t48.5 105q-2 61 -44.5 102.5t-105.5 41.5q-57 0 -106 -45t-47 -103z" />
<glyph unicode="&#xb1;" horiz-adv-x="1441" d="M-6 4l4 166l1317 4l-6 -168zM8 723l2 168l553 -2l10 465l215 4l-8 -467l545 8l-2 -166l-547 -8l-6 -467l-215 -4l6 467z" />
<glyph unicode="&#xb4;" horiz-adv-x="1267" d="M473 1128q92 176 145 306l23 16q154 0 336 10q-153 -149 -270 -315l-29 -15q-70 0 -205 -2z" />
<glyph unicode="&#xb6;" horiz-adv-x="1437" d="M125 963q-4 221 182 321q141 76 418 90q217 0 434 2v-121h-74l-28 -1581l-170 -2l28 1579l-274 -4l-27 -1581l-168 -2l17 942q-147 33 -238 123q-96 96 -100 234z" />
<glyph unicode="&#xb7;" horiz-adv-x="493" d="M76 416q8 104 6 213l22 20q92 4 267 17l26 -21q-6 -102 -6 -188l-20 -21q-100 -6 -295 -20z" />
<glyph unicode="&#xb8;" horiz-adv-x="622" d="M150 -375q86 119 169 266l27 17l203 2q-43 -111 -96 -256l-21 -21q-109 0 -282 -8z" />
<glyph unicode="&#xba;" horiz-adv-x="811" d="M-35 1020q-2 166 103.5 268.5t302.5 102.5q172 0 262 -91q82 -82 86 -229q2 -168 -90 -268q-102 -109 -303 -109q-174 0 -269 90q-88 84 -92 236zM178 1022q4 -209 160 -209q172 0 168 250q-4 209 -156 209q-176 0 -172 -250z" />
<glyph unicode="&#xbb;" horiz-adv-x="942" d="M4 139q119 164 242 375q-8 14 -240 387q150 2 230 6l24 -20q96 -168 219 -352v-19q-72 -106 -211 -358l-28 -17q-68 2 -236 -2zM406 145q86 133 241 383q-55 98 -235 383q156 0 233 4l27 -16q49 -90 98 -182q59 -102 115 -174q-134 -201 -230 -379l-24 -17q-80 0 -225 -2 z" />
<glyph unicode="&#xbf;" horiz-adv-x="901" d="M-4 354q-2 121 74 252q76 111 149 221q90 133 109 240l18 25q102 0 244 8q-25 -150 -76 -240q-72 -106 -145 -215q-92 -137 -90 -252q4 -211 239 -211q74 0 146 35q63 29 186 115q-7 -50 -25 -232l-14 -16q-158 -90 -362 -90q-193 0 -316 90q-135 96 -137 270zM309 1264 q0 41 2 198l21 23l268 14l25 -20q0 -53 -2 -203l-27 -25q-139 -6 -260 -14z" />
<glyph unicode="&#xc0;" d="M-72 -10q223 528 287 684q152 371 256 663l29 21q186 6 336 14l24 -20q63 -219 213 -656q121 -356 232 -663l-31 -29l-262 -10l-25 22q-39 133 -119 400q-236 -2 -503 -8q-82 -227 -134 -383l-24 -23q-121 -2 -279 -12zM352 1741l316 -6l24 -15q16 -61 107 -278l-31 -27 q-86 2 -166 -4q-16 16 -92 121q-47 68 -158 209zM430 580q178 0 385 6l-172 518z" />
<glyph unicode="&#xc1;" d="M-72 -10q223 528 287 684q152 371 256 663l29 21q186 6 336 14l24 -20q63 -219 213 -656q121 -356 232 -663l-31 -29l-262 -10l-25 22q-39 133 -119 400q-236 -2 -503 -8q-82 -227 -134 -383l-24 -23q-121 -2 -279 -12zM430 580q178 0 385 6l-172 518zM535 1425 q92 178 145 306l22 18q154 -2 336 8q-153 -149 -270 -315l-29 -15q-70 2 -204 -2z" />
<glyph unicode="&#xc2;" d="M-72 -10q223 528 287 684q152 371 256 663l29 21q186 6 336 14l24 -20q63 -219 213 -656q121 -356 232 -663l-31 -29l-262 -10l-25 22q-39 133 -119 400q-236 -2 -503 -8q-82 -227 -134 -383l-24 -23q-121 -2 -279 -12zM307 1399q37 61 115 164q72 92 98 139l25 18 q90 2 286 9l25 -17q53 -84 158 -258l-15 -37h-104q-37 0 -111 -4l-22 17q-23 41 -84 143q-43 -47 -119 -150l-27 -18q-111 0 -225 -6zM430 580q178 0 385 6l-172 518z" />
<glyph unicode="&#xc3;" d="M-72 -10q223 528 287 684q152 371 256 663l29 21q186 6 336 14l24 -20q63 -219 213 -656q121 -356 232 -663l-31 -29l-262 -10l-25 22q-39 133 -119 400q-236 -2 -503 -8q-82 -227 -134 -383l-24 -23q-121 -2 -279 -12zM309 1434q8 80 10 133q18 39 91 67q63 27 114 27 q68 0 175.5 -37t150.5 -37q74 0 156 88l57 -14q-6 -57 -12 -139q-117 -90 -211 -90q-63 0 -166 36.5t-150 36.5q-74 0 -166 -90zM430 580q178 0 385 6l-172 518z" />
<glyph unicode="&#xc4;" d="M-72 -10q223 528 287 684q152 371 256 663l29 21q186 6 336 14l24 -20q63 -219 213 -656q121 -356 232 -663l-31 -29l-262 -10l-25 22q-39 133 -119 400q-236 -2 -503 -8q-82 -227 -134 -383l-24 -23q-121 -2 -279 -12zM340 1464q12 66 33 224q90 4 321 14l-112 -193 l-31 -22q-55 -6 -211 -23zM430 580q178 0 385 6l-172 518zM772 1464q12 66 33 224q92 4 321 14l-110 -193l-33 -22q-53 -6 -211 -23z" />
<glyph unicode="&#xc5;" d="M-72 -10q223 528 287 684q152 371 256 663l29 21q186 6 336 14l24 -20q63 -219 213 -656q121 -356 232 -663l-31 -29l-262 -10l-25 22q-39 133 -119 400q-236 -2 -503 -8q-82 -227 -134 -383l-24 -23q-121 -2 -279 -12zM391 1579q0 72 73 124t206 52q117 0 184.5 -49 t67.5 -117q0 -72 -70 -121q-78 -53 -213 -53q-117 0 -186 51q-61 45 -62 113zM430 580q178 0 385 6l-172 518zM584 1583q0 -63 73 -63q72 0 72 63q0 66 -70 66q-76 0 -75 -66z" />
<glyph unicode="&#xc6;" horiz-adv-x="1845" d="M-129 -14q72 160 328 688q197 408 301 669l28 23h320q223 -2 307 -2q381 0 584 8q-9 -51 -19 -174l-18 -22q-96 0 -277.5 7t-269.5 7q-47 0 -96 -2q0 -29 -10 -387q43 2 86 2q592 0 536 -2q-6 -51 -14 -174l-21 -23q-84 2 -297 10q-188 6 -297 7q-4 -276 -4 -428 q217 -4 688 6q-4 -61 -14 -172l-20 -25q-129 -2 -228 -2q-754 0 -714 0l-19 25q6 125 17 376q-207 -2 -402 -6q-53 -121 -156 -375l-24 -22q-145 -6 -295 -12zM424 573q166 0 330 7q8 338 12 610l-66 -2z" />
<glyph unicode="&#xc7;" horiz-adv-x="1345" d="M20 639q-10 358 210.5 564t611.5 206q172 0 379 -63q6 -78 12 -242l-33 -21l-156 23l-40 104q-104 31 -170 31q-254 0 -394 -174q-127 -160 -121 -416q6 -227 130 -364q131 -145 362 -146q111 0 211 43q82 33 240 135q-19 -169 -23 -239l-14 -19q-176 -82 -379 -94 q-25 -74 -66 -211l-22 -24q-106 0 -283 -8q80 127 141 251q-274 41 -430.5 215.5t-165.5 448.5z" />
<glyph unicode="&#xc8;" horiz-adv-x="1179" d="M84 -8q29 414 29 782q0 78 -5.5 231.5t-5.5 231.5q0 57 4 98l23 21q305 0 915 8q-6 -57 -20 -172l-18 -23q-74 0 -289 9q-174 6 -289 6h-18q-10 -174 -15 -379h15q190 -2 567 0q-12 -84 -19 -170l-18 -23q-70 2 -256 9q-152 4 -258 4h-35q-6 -211 -6 -445q76 0 207 -2 q150 -2 209 -2q127 0 225 6q-6 -76 -12 -168l-27 -20q-82 -2 -160 -2q-750 0 -743 0zM248 1747l313 -6l25 -15q18 -61 106 -278l-30 -27q-86 2 -166 -4q-16 16 -90 121q-47 68 -158 209z" />
<glyph unicode="&#xc9;" horiz-adv-x="1179" d="M84 -8q29 414 29 782q0 78 -5.5 231.5t-5.5 231.5q0 57 4 98l23 21q305 0 915 8q-6 -57 -20 -172l-18 -23q-74 0 -289 9q-174 6 -289 6h-18q-10 -174 -15 -379h15q190 -2 567 0q-12 -84 -19 -170l-18 -23q-70 2 -256 9q-152 4 -258 4h-35q-6 -211 -6 -445q76 0 207 -2 q150 -2 209 -2q127 0 225 6q-6 -76 -12 -168l-27 -20q-82 -2 -160 -2q-750 0 -743 0zM457 1411q92 176 143 305l25 17q152 -2 333 10q-151 -150 -268 -316l-31 -14q-70 0 -202 -2z" />
<glyph unicode="&#xca;" horiz-adv-x="1179" d="M84 -8q29 414 29 782q0 78 -5.5 231.5t-5.5 231.5q0 57 4 98l23 21q305 0 915 8q-6 -57 -20 -172l-18 -23q-74 0 -289 9q-174 6 -289 6h-18q-10 -174 -15 -379h15q190 -2 567 0q-12 -84 -19 -170l-18 -23q-70 2 -256 9q-152 4 -258 4h-35q-6 -211 -6 -445q76 0 207 -2 q150 -2 209 -2q127 0 225 6q-6 -76 -12 -168l-27 -20q-82 -2 -160 -2q-750 0 -743 0zM227 1415q37 61 115 164q72 92 98 139l25 19q90 4 287 8l24 -14q53 -86 158 -261l-14 -34h-105q-37 0 -110 -6l-23 18q-23 41 -84 143q-43 -49 -119 -149l-26 -21q-111 2 -226 -6z" />
<glyph unicode="&#xcb;" horiz-adv-x="1179" d="M84 -8q29 414 29 782q0 78 -5.5 231.5t-5.5 231.5q0 57 4 98l23 21q305 0 915 8q-6 -57 -20 -172l-18 -23q-74 0 -289 9q-174 6 -289 6h-18q-10 -174 -15 -379h15q190 -2 567 0q-12 -84 -19 -170l-18 -23q-70 2 -256 9q-152 4 -258 4h-35q-6 -211 -6 -445q76 0 207 -2 q150 -2 209 -2q127 0 225 6q-6 -76 -12 -168l-27 -20q-82 -2 -160 -2q-750 0 -743 0zM264 1466q14 63 33 224q90 2 321 12l-110 -191l-33 -22q-53 -6 -211 -23zM696 1466q14 63 35 224q90 2 322 12l-113 -191l-31 -22q-55 -6 -213 -23z" />
<glyph unicode="&#xcc;" horiz-adv-x="591" d="M-14 1757l315 -6l25 -14q18 -61 106 -279l-31 -26q-86 2 -165 -5q-16 16 -93 121q-47 68 -157 209zM-4 1184l45 157l37 21q123 0 358 8q-29 -461 -28 -852q0 -256 12 -512q-133 -4 -307 -12q31 561 20 1192z" />
<glyph unicode="&#xcd;" horiz-adv-x="591" d="M-4 1184l45 157l37 21q123 0 358 8q-29 -461 -28 -852q0 -256 12 -512q-133 -4 -307 -12q31 561 20 1192zM123 1442q92 178 143 305l25 18q154 -2 336 9q-154 -150 -271 -316l-28 -14q-70 2 -205 -2z" />
<glyph unicode="&#xce;" horiz-adv-x="591" d="M-100 1415q39 61 116 164q70 92 97 139l26 19q88 2 285 8l27 -16q53 -84 157 -259l-16 -36h-103q-37 0 -112 -4l-23 16q-23 43 -82 143q-45 -47 -118 -149l-27 -19q-113 0 -227 -6zM-4 1184l45 157l37 21q123 0 358 8q-29 -461 -28 -852q0 -256 12 -512q-133 -4 -307 -12 q31 561 20 1192z" />
<glyph unicode="&#xcf;" horiz-adv-x="591" d="M-82 1473q12 63 33 221q90 4 321 14l-112 -190l-31 -23q-55 -6 -211 -22zM-4 1184l45 157l37 21q123 0 358 8q-29 -461 -28 -852q0 -256 12 -512q-133 -4 -307 -12q31 561 20 1192zM350 1473q12 63 33 221l322 14l-111 -190l-33 -23q-53 -6 -211 -22z" />
<glyph unicode="&#xd1;" horiz-adv-x="1550" d="M84 -8q23 432 22 946q0 307 -6 403l37 23q72 -2 289 10l35 -20q10 -16 651 -1024q0 330 -16 1007l22 21q100 2 252 12q-28 -868 -20 -1364q-127 -2 -314 -12l-28 20q-125 203 -334 521q-246 371 -332 507q0 -326 18 -1017l-22 -21q-113 -2 -254 -12zM186 1561 q139 164 314 163q98 0 250.5 -59t212.5 -59q74 0 219 139l90 -150q-162 -155 -322 -155q-96 0 -238.5 60.5t-213.5 60.5q-55 0 -123 -60q-2 0 -92 -90z" />
<glyph unicode="&#xd2;" horiz-adv-x="1615" d="M10 651q-8 338 183 543q203 217 573 217q332 0 520 -190q176 -180 184 -482q8 -342 -178 -546q-198 -218 -573 -218q-332 0 -520 191q-178 180 -189 485zM319 668q6 -223 99 -357q106 -158 313 -157q229 0 346 182q98 158 92 401q-14 498 -407 498q-242 0 -354 -170 q-94 -145 -89 -397zM446 1794l314 -6l26 -16q16 -59 107 -277l-33 -27q-84 2 -164 -4q-18 16 -92 121q-47 68 -158 209z" />
<glyph unicode="&#xd3;" horiz-adv-x="1615" d="M10 651q-8 338 183 543q203 217 573 217q332 0 520 -190q176 -180 184 -482q8 -342 -178 -546q-198 -218 -573 -218q-332 0 -520 191q-178 180 -189 485zM319 668q6 -223 99 -357q106 -158 313 -157q229 0 346 182q98 158 92 401q-14 498 -407 498q-242 0 -354 -170 q-94 -145 -89 -397zM635 1458q92 176 143 303l25 19q152 -2 334 10q-152 -149 -269 -317l-30 -13q-70 0 -203 -2z" />
<glyph unicode="&#xd4;" horiz-adv-x="1615" d="M10 651q-8 338 183 543q203 217 573 217q332 0 520 -190q176 -180 184 -482q8 -342 -178 -546q-198 -218 -573 -218q-332 0 -520 191q-178 180 -189 485zM319 668q6 -223 99 -357q106 -158 313 -157q229 0 346 182q98 158 92 401q-14 498 -407 498q-242 0 -354 -170 q-94 -145 -89 -397zM399 1458q37 59 117 162q70 92 96 139l25 19q90 4 287 10l26 -16q51 -86 156 -259l-14 -36h-105q-35 0 -110 -4l-23 16q-23 41 -84 143q-43 -49 -119 -149l-26 -21q-111 2 -226 -4z" />
<glyph unicode="&#xd5;" horiz-adv-x="1615" d="M10 651q-8 338 183 543q203 217 573 217q332 0 520 -190q176 -180 184 -482q8 -342 -178 -546q-198 -218 -573 -218q-332 0 -520 191q-178 180 -189 485zM319 668q6 -223 99 -357q106 -158 313 -157q229 0 346 182q98 158 92 401q-14 498 -407 498q-242 0 -354 -170 q-94 -145 -89 -397zM383 1477q8 80 8 133q20 37 92 67q63 27 115 27q68 0 175.5 -37t150.5 -37q74 0 155 88l58 -14q-7 -57 -13 -139q-117 -90 -211 -90q-63 0 -165.5 36.5t-149.5 36.5q-74 0 -166 -90z" />
<glyph unicode="&#xd6;" horiz-adv-x="1615" d="M10 651q-8 338 183 543q203 217 573 217q332 0 520 -190q176 -180 184 -482q8 -342 -178 -546q-198 -218 -573 -218q-332 0 -520 191q-178 180 -189 485zM319 668q6 -223 99 -357q106 -158 313 -157q229 0 346 182q98 158 92 401q-14 498 -407 498q-242 0 -354 -170 q-94 -145 -89 -397zM436 1466q12 63 33 222q90 4 322 14l-113 -193l-31 -20q-55 -6 -211 -23zM868 1466q14 63 35 222q90 4 322 14l-113 -193l-31 -20q-55 -6 -213 -23z" />
<glyph unicode="&#xd8;" horiz-adv-x="1617" d="M-78 59q88 59 203 164q-106 184 -111 383q-6 346 179 559q203 233 581 234q293 0 498 -160q94 82 166 152h43l88 -78v-29l-199 -162q106 -195 107 -430q0 -303 -174 -499q-203 -227 -580 -228q-293 0 -487 144q-94 -84 -158 -148h-43q-35 33 -113 98zM315 625 q2 -96 27 -209l748 663q-132 152 -320 152q-236 0 -356 -193q-102 -164 -99 -413zM412 270q133 -135 313 -135q242 0 360 195q98 164 95 424q-3 68 -21 174z" />
<glyph unicode="&#xd9;" horiz-adv-x="1531" d="M104 440q-2 129 5.5 382t3.5 382q0 68 -9 135l39 21q98 0 283 10q-4 -100 -20 -747q-4 -109 -5 -115q0 -162 54 -244q72 -113 262 -112q236 0 311 165q39 88 43 320q6 471 -4 725q84 2 268 14q-12 -235 -18 -839q-2 -279 -133 -408q-162 -156 -492 -156q-213 0 -360 74 q-180 90 -215 272q-10 47 -13 121zM440 1700l314 -4l24 -17q18 -59 109 -278l-33 -25q-84 2 -164 -4q-18 14 -92 121q-47 66 -158 207z" />
<glyph unicode="&#xda;" horiz-adv-x="1531" d="M104 440q-2 129 5.5 382t3.5 382q0 68 -9 135l39 21q98 0 283 10q-4 -100 -20 -747q-4 -109 -5 -115q0 -162 54 -244q72 -113 262 -112q236 0 311 165q39 88 43 320q6 471 -4 725q84 2 268 14q-12 -235 -18 -839q-2 -279 -133 -408q-162 -156 -492 -156q-213 0 -360 74 q-180 90 -215 272q-10 47 -13 121zM575 1397q92 178 144 305l24 18q152 -2 336 9q-153 -150 -270 -316l-29 -14q-70 2 -205 -2z" />
<glyph unicode="&#xdb;" horiz-adv-x="1531" d="M104 440q-2 129 5.5 382t3.5 382q0 68 -9 135l39 21q98 0 283 10q-4 -100 -20 -747q-4 -109 -5 -115q0 -162 54 -244q72 -113 262 -112q236 0 311 165q39 88 43 320q6 471 -4 725q84 2 268 14q-12 -235 -18 -839q-2 -279 -133 -408q-162 -156 -492 -156q-213 0 -360 74 q-180 90 -215 272q-10 47 -13 121zM383 1421q37 59 115 162q72 94 96 139l27 21q90 2 286 8l25 -16q53 -86 158 -258l-15 -37h-104q-37 0 -111 -4l-24 16q-23 41 -82 143q-43 -49 -119 -149l-27 -21q-111 2 -225 -4z" />
<glyph unicode="&#xdc;" horiz-adv-x="1531" d="M104 440q-2 129 4.5 382t4.5 382q0 68 -9 135l39 21q98 0 283 10q-6 -100 -20 -747q-4 -109 -5 -115q0 -162 54 -244q72 -113 262 -112q236 0 311 165q39 88 43 320q6 471 -4 725q84 2 268 14q-12 -235 -18 -839q-2 -279 -133 -408q-162 -156 -492 -156q-213 0 -360 74 q-180 90 -215 272q-10 47 -13 121zM412 1466q12 63 32 222q90 4 322 14l-113 -191l-30 -22q-55 -6 -211 -23zM844 1466q14 63 35 222q90 4 321 14l-113 -191l-30 -22q-55 -6 -213 -23z" />
<glyph unicode="&#xdf;" horiz-adv-x="1259" d="M53 -18q16 225 33 1038q2 180 35 260q47 123 196 195q121 61 291 61q174 0 289 -72q135 -82 139 -237q2 -141 -141 -279q-35 -33 -72 -67q-53 -51 -53 -74q2 -41 100 -113q143 -104 183 -145q100 -102 102 -213q2 -168 -137 -264q-123 -86 -309 -86q-94 0 -222 32l-12 19 l2 145l35 19q111 -47 184 -47q80 0 137.5 37.5t57.5 105.5q-2 76 -100 164q-92 74 -185 145q-100 84 -100 142q-2 37 67 108q100 104 127 139q68 94 66 189q-2 86 -49 138t-127 52q-137 0 -193 -94q-37 -61 -45 -186q0 -6 -4 -156q-20 -590 -2 -942q-158 -4 -293 -14z" />
<glyph unicode="&#xe0;" horiz-adv-x="1214" d="M8 436q-10 285 191 443q184 147 489 147q176 0 250 -33q100 -43 104 -164q0 -14 -2 -172q-4 -172 -4 -227q0 -356 2 -405l-14 -39q-74 4 -127 27.5t-106 49.5q-160 -88 -299 -88q-217 0 -351 136q-125 127 -133 325zM264 1458l314 -6l24 -14q18 -61 107 -279l-31 -26 q-86 2 -166 -5q-16 16 -90 121q-47 68 -158 209zM289 446q4 -129 69.5 -206.5t182.5 -77.5q113 0 219 80q8 459 6 553q0 16 -22.5 37.5t-55.5 21.5q-193 10 -300 -99.5t-99 -308.5z" />
<glyph unicode="&#xe1;" horiz-adv-x="1214" d="M8 436q-10 285 191 443q184 147 489 147q176 0 250 -33q100 -43 104 -164q0 -14 -2 -172q-4 -172 -4 -227q0 -356 2 -405l-14 -39q-74 4 -127 27.5t-106 49.5q-160 -88 -299 -88q-217 0 -351 136q-125 127 -133 325zM289 446q4 -129 69.5 -206.5t182.5 -77.5 q113 0 219 80q8 459 6 553q0 16 -22.5 37.5t-55.5 21.5q-193 10 -300 -99.5t-99 -308.5zM473 1128q92 176 145 306l23 16q154 0 336 10q-153 -149 -270 -315l-29 -15q-70 0 -205 -2z" />
<glyph unicode="&#xe2;" horiz-adv-x="1214" d="M8 436q-10 285 191 443q184 147 489 147q176 0 250 -33q100 -43 104 -164q0 -14 -2 -172q-4 -172 -4 -227q0 -356 2 -405l-14 -39q-74 4 -127 27.5t-106 49.5q-160 -88 -299 -88q-217 0 -351 136q-125 127 -133 325zM229 1128q37 59 115 162q72 94 98 140l25 20 q90 2 287 8l24 -16q53 -86 158 -258l-14 -37h-105q-37 0 -110 -4l-23 16q-23 41 -84 144q-43 -49 -119 -150l-26 -20q-111 2 -226 -5zM289 446q4 -129 69.5 -206.5t182.5 -77.5q113 0 219 80q8 459 6 553q0 16 -22.5 37.5t-55.5 21.5q-193 10 -300 -99.5t-99 -308.5z" />
<glyph unicode="&#xe3;" horiz-adv-x="1214" d="M8 436q-10 285 191 443q184 147 489 147q176 0 250 -33q100 -43 104 -164q0 -14 -2 -172q-4 -172 -4 -227q0 -356 2 -405l-14 -39q-74 4 -127 27.5t-106 49.5q-160 -88 -299 -88q-217 0 -351 136q-125 127 -133 325zM236 1157q8 80 10 133q18 39 90 68q66 27 117 26 q66 0 173 -36.5t152 -36.5q72 0 156 88l55 -13q-6 -59 -12 -141q-115 -88 -209 -88q-63 0 -165.5 36t-151.5 36q-72 0 -164 -90zM289 446q4 -129 69.5 -206.5t182.5 -77.5q113 0 219 80q8 459 6 553q0 16 -22.5 37.5t-55.5 21.5q-193 10 -300 -99.5t-99 -308.5z" />
<glyph unicode="&#xe4;" horiz-adv-x="1214" d="M8 436q-10 285 191 443q184 147 489 147q176 0 250 -33q100 -43 104 -164q0 -14 -2 -172q-4 -172 -4 -227q0 -356 2 -405l-14 -39q-74 4 -127 27.5t-106 49.5q-160 -88 -299 -88q-217 0 -351 136q-125 127 -133 325zM252 1212q12 63 31 224q92 2 321 12l-110 -191 l-33 -22q-53 -6 -209 -23zM289 446q4 -129 69.5 -206.5t182.5 -77.5q113 0 219 80q8 459 6 553q0 16 -22.5 37.5t-55.5 21.5q-193 10 -300 -99.5t-99 -308.5zM684 1212q12 63 33 224q90 2 321 12l-110 -191l-33 -22q-53 -6 -211 -23z" />
<glyph unicode="&#xe5;" horiz-adv-x="1214" d="M8 436q-10 285 191 443q184 147 489 147q176 0 250 -33q100 -43 104 -164q0 -14 -2 -172q-4 -172 -4 -227q0 -356 2 -405l-14 -39q-74 4 -127 27.5t-106 49.5q-160 -88 -299 -88q-217 0 -351 136q-125 127 -133 325zM289 446q4 -129 69.5 -206.5t182.5 -77.5 q113 0 219 80q8 459 6 553q0 16 -22.5 37.5t-55.5 21.5q-193 10 -300 -99.5t-99 -308.5zM358 1296q0 72 70 121q78 57 209 58q117 0 188 -54q63 -47 64 -114q0 -70 -70 -119q-78 -53 -213 -53q-117 0 -186 49q-61 47 -62 112zM553 1303q0 -63 72 -64q72 0 71 61q1 68 -69 68 q-74 0 -74 -65z" />
<glyph unicode="&#xe6;" horiz-adv-x="1841" d="M-27 270q-4 209 246 293q158 55 469 64q0 111 -22 153q-39 72 -162 72q-141 0 -361 -90l-47 20q10 76 13 152l22 18q256 74 432 74q188 0 314 -119q184 131 393 131q238 0 368 -141q119 -129 105 -317l-103 -58q-403 -45 -677 -61q23 -311 315 -311q166 0 367 124l53 -18 q-14 -96 -21 -174l-16 -19q-184 -94 -416 -94q-250 0 -420 131q-195 -143 -424 -143q-170 0 -288 76q-137 86 -140 237zM262 285q2 -141 184 -142q135 0 275 115q-25 80 -35 195q-428 -4 -424 -168zM965 633q276 20 487 41q-16 104 -59 149q-50 51 -154 51q-178 0 -274 -241 z" />
<glyph unicode="&#xe7;" horiz-adv-x="974" d="M-4 465q0 227 160 391q176 180 467 180q160 0 295 -45q-11 -96 -15 -166l-45 -20q-104 57 -205 57q-174 0 -280 -125q-94 -113 -94 -266q0 -135 77 -227q84 -100 234 -101q133 0 328 142q-14 -162 -19 -228q-92 -68 -268 -86q-25 -78 -70 -219l-20 -24q-106 0 -283 -9 q82 127 145 261q-197 39 -307 182q-100 129 -100 303z" />
<glyph unicode="&#xe8;" horiz-adv-x="1140" d="M16 457q-8 250 131 413q156 182 435 183q178 0 309 -87t190 -247q-28 -42 -94 -103q-229 -55 -686 -157q33 -309 334 -309q100 0 183 34.5t216 128.5q-18 -139 -24 -235q-55 -49 -201 -80q-113 -23 -203 -23q-260 0 -416 121q-164 129 -174 361zM264 1458l314 -6l24 -14 q18 -61 107 -279l-31 -26q-86 2 -166 -5q-16 16 -90 121q-47 68 -158 209zM299 643l479 102q-103 150 -209 150q-186 0 -270 -252z" />
<glyph unicode="&#xe9;" horiz-adv-x="1140" d="M16 457q-8 250 131 413q156 182 435 183q178 0 309 -87t190 -247q-28 -42 -94 -103q-229 -55 -686 -157q33 -309 334 -309q100 0 183 34.5t216 128.5q-18 -139 -24 -235q-55 -49 -201 -80q-113 -23 -203 -23q-260 0 -416 121q-164 129 -174 361zM299 643l479 102 q-103 150 -209 150q-186 0 -270 -252zM473 1128q92 176 145 306l23 16q154 0 336 10q-153 -149 -270 -315l-29 -15q-70 0 -205 -2z" />
<glyph unicode="&#xea;" horiz-adv-x="1140" d="M16 457q-8 250 131 413q156 182 435 183q178 0 309 -87t190 -247q-28 -42 -94 -103q-229 -55 -686 -157q33 -309 334 -309q100 0 183 34.5t216 128.5q-18 -139 -24 -235q-55 -49 -201 -80q-113 -23 -203 -23q-260 0 -416 121q-164 129 -174 361zM193 1128q39 59 116 162 q70 94 97 140l26 20q88 2 285 8l26 -16q51 -86 158 -258l-16 -37h-103q-37 0 -112 -4l-23 16q-23 41 -82 144q-45 -49 -119 -150l-26 -20q-113 2 -227 -5zM299 643l479 102q-103 150 -209 150q-186 0 -270 -252z" />
<glyph unicode="&#xeb;" horiz-adv-x="1140" d="M16 457q-8 250 131 413q156 182 435 183q178 0 309 -87t190 -247q-28 -42 -94 -103q-229 -55 -686 -157q33 -309 334 -309q100 0 183 34.5t216 128.5q-18 -139 -24 -235q-55 -49 -201 -80q-113 -23 -203 -23q-260 0 -416 121q-164 129 -174 361zM246 1212q12 63 33 224 q90 2 321 12l-113 -191l-30 -22q-55 -6 -211 -23zM299 643l479 102q-103 150 -209 150q-186 0 -270 -252zM678 1212q14 63 35 224q90 2 321 12l-112 -191l-31 -22q-55 -6 -213 -23z" />
<glyph unicode="&#xec;" horiz-adv-x="536" d="M-41 1458l313 -6l25 -14q18 -61 109 -279l-33 -26q-84 2 -166 -5q-16 16 -90 121q-47 68 -158 209zM96 -10q35 362 27 766q-2 100 -14 223q131 23 276 51l35 -18q-27 -358 -27 -662q0 -174 8 -344q-162 -6 -305 -16z" />
<glyph unicode="&#xed;" horiz-adv-x="536" d="M96 -10q35 362 27 766q-2 100 -14 223q131 23 276 51l35 -18q-27 -358 -27 -662q0 -174 8 -344q-162 -6 -305 -16zM113 1128q90 176 143 306l25 16q152 0 333 10q-153 -149 -270 -315l-29 -15q-70 0 -202 -2z" />
<glyph unicode="&#xee;" horiz-adv-x="536" d="M-88 1128q37 59 115 162q72 94 96 140l27 20q90 2 286 8l25 -16q53 -86 157 -258l-14 -37h-104q-37 0 -111 -4l-22 16q-23 41 -84 144q-43 -49 -119 -150l-27 -20q-111 2 -225 -5zM96 -10q35 362 27 766q-2 100 -14 223q131 23 276 51l35 -18q-27 -358 -27 -662 q0 -174 8 -344q-162 -6 -305 -16z" />
<glyph unicode="&#xef;" horiz-adv-x="536" d="M-55 1212q12 63 32 224q90 2 322 12l-113 -191l-30 -22q-55 -6 -211 -23zM96 -10q35 362 27 766q-2 100 -14 223q131 23 276 51l35 -18q-27 -358 -27 -662q0 -174 8 -344q-162 -6 -305 -16zM377 1212q12 63 33 224q92 2 321 12l-110 -191l-33 -22q-53 -6 -211 -23z" />
<glyph unicode="&#xf1;" horiz-adv-x="1257" d="M92 979q41 20 60 20q47 0 194 -49q176 88 420 88q340 0 344 -315q2 -86 -1 -254t-3 -254q2 -90 10 -203q-153 -6 -266 -14l-25 22q0 86 9 314q8 190 6 309q-2 94 -45 152q-47 66 -129 65q-137 0 -279 -94q-10 -432 4 -739l-22 -19q-135 -4 -275 -14q18 430 15 618 q-2 158 -17 367zM219 1157q6 80 8 133q20 39 92 68q63 27 115 26q66 0 173.5 -36.5t152.5 -36.5q74 0 155 88l58 -13q-8 -59 -12 -141q-117 -88 -211 -88q-63 0 -166 36t-150 36q-74 0 -166 -90z" />
<glyph unicode="&#xf2;" horiz-adv-x="1198" d="M6 461q-10 262 139 413q156 160 451 160q250 0 391 -133q133 -127 141 -350q10 -264 -131 -416q-149 -162 -442 -162q-256 0 -397.5 129t-151.5 359zM264 1458l314 -6l24 -14q18 -61 107 -279l-31 -26q-86 2 -166 -5q-16 16 -90 121q-47 68 -158 209zM289 446 q6 -137 69 -221q72 -94 199 -94q305 0 289 391q-12 352 -268 352q-305 0 -289 -428z" />
<glyph unicode="&#xf3;" horiz-adv-x="1198" d="M6 461q-10 262 139 413q156 160 451 160q250 0 391 -133q133 -127 141 -350q10 -264 -131 -416q-149 -162 -442 -162q-256 0 -397.5 129t-151.5 359zM289 446q6 -137 69 -221q72 -94 199 -94q305 0 289 391q-12 352 -268 352q-305 0 -289 -428zM473 1128q92 176 145 306 l23 16q154 0 336 10q-153 -149 -270 -315l-29 -15q-70 0 -205 -2z" />
<glyph unicode="&#xf4;" horiz-adv-x="1198" d="M6 461q-10 262 139 413q156 160 451 160q250 0 391 -133q133 -127 141 -350q10 -264 -131 -416q-149 -162 -442 -162q-256 0 -397.5 129t-151.5 359zM193 1128q39 59 116 162q70 94 97 140l26 20q88 2 285 8l26 -16q51 -86 158 -258l-16 -37h-103q-37 0 -112 -4l-23 16 q-23 41 -82 144q-45 -49 -119 -150l-26 -20q-113 2 -227 -5zM289 446q6 -137 69 -221q72 -94 199 -94q305 0 289 391q-12 352 -268 352q-305 0 -289 -428z" />
<glyph unicode="&#xf5;" horiz-adv-x="1198" d="M6 461q-10 262 139 413q156 160 451 160q250 0 391 -133q133 -127 141 -350q10 -264 -131 -416q-149 -162 -442 -162q-256 0 -397.5 129t-151.5 359zM231 1157q6 80 9 133q18 39 92 68q63 27 114 26q66 0 173.5 -36.5t152.5 -36.5q74 0 156 88l57 -13q-8 -59 -12 -141 q-117 -88 -211 -88q-63 0 -165.5 36t-152.5 36q-72 0 -163 -90zM289 446q6 -137 69 -221q72 -94 199 -94q305 0 289 391q-12 352 -268 352q-305 0 -289 -428z" />
<glyph unicode="&#xf6;" horiz-adv-x="1198" d="M6 461q-10 262 139 413q156 160 451 160q250 0 391 -133q133 -127 141 -350q10 -264 -131 -416q-149 -162 -442 -162q-256 0 -397.5 129t-151.5 359zM252 1212q12 63 31 224q92 2 323 12l-112 -191l-31 -22q-55 -6 -211 -23zM289 446q6 -137 69 -221q72 -94 199 -94 q305 0 289 391q-12 352 -268 352q-305 0 -289 -428zM684 1212q12 63 33 224q92 2 321 12l-110 -191l-33 -22q-53 -6 -211 -23z" />
<glyph unicode="&#xf7;" horiz-adv-x="1437" d="M-70 465l7 164l1499 2l-6 -164zM532 264q0 47 40 84t108 37t103.5 -31.5t35.5 -77.5q0 -49 -37 -81q-42 -39 -112 -39q-66 0 -105 34q-33 29 -33 74zM553 821q0 47 40 83t109 36q66 0 105 -33q33 -31 33 -76q0 -47 -37 -81q-43 -37 -113 -37q-66 0 -101.5 31.5 t-35.5 76.5z" />
<glyph unicode="&#xf8;" horiz-adv-x="1255" d="M-94 68l188 141q-55 137 -57 276q-4 250 154.5 399.5t437.5 149.5q207 0 370 -110q66 53 131 110h44q45 -43 81 -82l-6 -30q-53 -37 -155 -109q59 -127 63 -274q4 -262 -139 -410q-152 -158 -445 -158q-227 0 -387 127q-72 -59 -135 -118h-49zM313 469q0 -35 2 -86 l506 399q-91 101 -200 101q-307 0 -308 -414zM360 236q84 -115 226 -115q295 0 295 385q-1 59 -9 135z" />
<glyph unicode="&#xf9;" horiz-adv-x="1253" d="M90 997l23 19q111 6 262 20l24 -20q2 -74 -12 -197q-14 -135 -16 -188q-4 -182 -2 -262q2 -94 46 -155.5t126 -61.5q117 0 270 104q2 37 8 170q4 109 4 172q0 186 -8 399l23 19q29 2 274 20q-29 -658 -6 -1020l-27 -30q-70 8 -127 32q-2 2 -106 58q-205 -102 -404 -103 q-340 0 -346 314q6 236 -6 710zM287 1458l315 -6l25 -14q16 -61 106 -279l-31 -26q-86 2 -165 -5q-16 16 -93 121q-47 68 -157 209z" />
<glyph unicode="&#xfa;" horiz-adv-x="1253" d="M90 997l23 19q111 6 262 20l24 -20q2 -74 -12 -197q-14 -135 -16 -188q-4 -182 -2 -262q2 -94 46 -155.5t126 -61.5q117 0 270 104q2 37 8 170q4 109 4 172q0 186 -8 399l23 19q29 2 274 20q-29 -658 -6 -1020l-27 -30q-70 8 -127 32q-2 2 -106 58q-205 -102 -404 -103 q-340 0 -346 314q6 236 -6 710zM473 1128q92 176 145 306l23 16q154 0 336 10q-153 -149 -270 -315l-29 -15q-70 0 -205 -2z" />
<glyph unicode="&#xfb;" horiz-adv-x="1253" d="M90 997l23 19q111 6 262 20l24 -20q2 -74 -12 -197q-14 -135 -16 -188q-4 -182 -2 -262q2 -94 46 -155.5t126 -61.5q117 0 270 104q2 37 8 170q4 109 4 172q0 186 -8 399l23 19q29 2 274 20q-29 -658 -6 -1020l-27 -30q-70 8 -127 32q-2 2 -106 58q-205 -102 -404 -103 q-340 0 -346 314q6 236 -6 710zM229 1128q37 59 115 162q72 94 98 140l25 20q90 2 287 8l24 -16q53 -86 158 -258l-14 -37h-105q-37 0 -110 -4l-23 16q-23 41 -84 144q-43 -49 -119 -150l-26 -20q-111 2 -226 -5z" />
<glyph unicode="&#xfc;" horiz-adv-x="1253" d="M90 997l23 19q111 6 262 20l24 -20q2 -74 -12 -197q-14 -135 -16 -188q-4 -182 -2 -262q2 -94 46 -155.5t126 -61.5q117 0 270 104q2 37 8 170q4 109 4 172q0 186 -8 399l23 19q29 2 274 20q-29 -658 -6 -1020l-27 -30q-70 8 -127 32q-2 2 -106 58q-205 -102 -404 -103 q-340 0 -346 314q6 236 -6 710zM264 1212q12 63 33 224q90 2 321 12l-112 -191l-31 -22q-55 -6 -211 -23zM696 1212q12 63 33 224q92 2 322 12l-111 -191l-33 -22q-53 -6 -211 -23z" />
<glyph unicode="&#xff;" horiz-adv-x="980" d="M-59 993q193 16 292 29l27 -21q70 -225 238 -688q86 225 250 688l26 19q104 2 260 8q-207 -446 -416 -950q-66 -156 -184 -477l-31 -23q-150 -6 -297 -12q115 152 246 414q-29 82 -155 399q-78 195 -256 614zM88 1184q8 96 4 188l27 27q106 0 250 8l24 -25 q-4 -88 -2 -190l-22 -25q-111 0 -260 -8zM582 1194q4 113 4 192l28 23h72q55 0 176 6l25 -22q-2 -101 0 -193l-25 -22q-133 -2 -260 -7z" />
<glyph unicode="&#x152;" horiz-adv-x="2062" d="M-8 643v37q0 258 140 430t417 236q147 33 538 32h232q51 0 199 -2q129 -2 198 -2q61 0 240 6q-9 -61 -23 -178l-24 -22q-498 8 -631 8q-10 -190 -14 -383q207 0 618 6q-4 -59 -12 -174l-27 -23q-43 0 -293 4q-176 2 -290 3q-6 -209 -7 -435h105q59 0 175 -2t175 -2 q88 0 203 6l24 -22q-10 -74 -12 -150l-25 -24q-88 0 -251 4q-174 4 -252 4q-102 0 -307 -5t-308 -5q-369 0 -571 155q-217 166 -217 498zM299 657q0 -299 193 -415q109 -66 335 -66q57 0 136 4q27 584 22 1010q-53 2 -90 2q-283 0 -412 -96q-86 -63 -135 -183t-49 -256z" />
<glyph unicode="&#x153;" horiz-adv-x="1974" d="M-2 451q-6 256 137 407q154 164 438 164q233 0 406 -158q190 172 416 172q137 0 235 -47q88 -39 162 -131q80 -98 80 -182q0 -7 -6 -58l-94 -79l-680 -84q4 -84 18 -127q61 -178 299 -178q168 0 365 124l49 -26q-18 -109 -25 -172l-16 -17q-186 -86 -396 -86 q-258 0 -423 152q-188 -166 -439 -166q-256 0 -393 135q-129 129 -133 357zM287 457q6 -330 264 -330q283 0 274 405q-5 322 -245 322q-301 0 -293 -397zM1096 627l499 61q-55 184 -213 184q-205 0 -286 -245z" />
<glyph unicode="&#x178;" horiz-adv-x="1167" d="M-113 1362q66 4 306 22l30 -14q68 -115 162 -289q137 -262 152 -288q205 334 333 571l31 18q96 2 275 13q-183 -276 -517 -811q-14 -242 -2 -564l-20 -22q-150 0 -289 -8q25 338 19 573q-264 461 -480 799zM123 1491l4 188l23 25q133 0 284 6q-4 -61 -4 -213l-22 -22 l-261 -5zM631 1501q4 113 2 185l24 24h125q23 0 64 2q55 2 76 2l26 -18q-4 -78 -6 -193l-24 -24q-111 4 -263 2z" />
<glyph unicode="&#x2c6;" horiz-adv-x="1114" d="M193 1128q39 59 116 162q70 94 97 140l26 20q88 2 285 8l26 -16q51 -86 158 -258l-16 -37h-103q-37 0 -112 -4l-23 16q-23 41 -82 144q-45 -49 -119 -150l-26 -20q-113 2 -227 -5z" />
<glyph unicode="&#x2dc;" horiz-adv-x="735" d="M-57 1157q8 80 8 133q20 39 92 68q63 27 115 26q68 0 175 -36.5t150 -36.5q74 0 156 88l57 -13q-6 -59 -12 -141q-117 -88 -211 -88q-63 0 -165.5 36t-149.5 36q-74 0 -166 -90z" />
<glyph unicode="&#x2000;" horiz-adv-x="897" />
<glyph unicode="&#x2001;" horiz-adv-x="1794" />
<glyph unicode="&#x2002;" horiz-adv-x="897" />
<glyph unicode="&#x2003;" horiz-adv-x="1794" />
<glyph unicode="&#x2004;" horiz-adv-x="598" />
<glyph unicode="&#x2005;" horiz-adv-x="448" />
<glyph unicode="&#x2006;" horiz-adv-x="299" />
<glyph unicode="&#x2007;" horiz-adv-x="299" />
<glyph unicode="&#x2008;" horiz-adv-x="224" />
<glyph unicode="&#x2009;" horiz-adv-x="358" />
<glyph unicode="&#x200a;" horiz-adv-x="99" />
<glyph unicode="&#x2010;" horiz-adv-x="966" d="M104 451q4 25 11 186l22 16q61 0 158 -2h145q238 0 432 11q-2 -66 -10 -203h-198q-315 0 -560 -8z" />
<glyph unicode="&#x2011;" horiz-adv-x="966" d="M104 451q4 25 11 186l22 16q61 0 158 -2h145q238 0 432 11q-2 -66 -10 -203h-198q-315 0 -560 -8z" />
<glyph unicode="&#x2012;" horiz-adv-x="966" d="M104 451q4 25 11 186l22 16q61 0 158 -2h145q238 0 432 11q-2 -66 -10 -203h-198q-315 0 -560 -8z" />
<glyph unicode="&#x2013;" horiz-adv-x="1349" d="M66 453q4 63 14 182l24 14l621 -4q270 0 520 10q-4 -32 -14 -194q-127 -2 -305 0q-244 2 -283 2q-246 0 -577 -10z" />
<glyph unicode="&#x2014;" horiz-adv-x="1572" d="M-18 444q8 57 20 164q145 2 746 0q459 0 745 15q-6 -58 -18 -152l-21 -14q-201 -6 -737 -2q-463 2 -735 -11z" />
<glyph unicode="&#x2018;" horiz-adv-x="448" d="M-51 965q109 211 229 505l21 21q102 4 211 12q-57 -176 -80 -258q-40 -130 -58 -239l-20 -21q-117 -4 -303 -20z" />
<glyph unicode="&#x2019;" horiz-adv-x="436" d="M-47 965q106 336 135 499l21 21q156 8 303 20q-111 -215 -226 -506l-24 -20z" />
<glyph unicode="&#x201a;" horiz-adv-x="489" d="M29 -303q102 311 137 500l22 20q106 2 297 14q-119 -245 -221 -505l-24 -21z" />
<glyph unicode="&#x201c;" horiz-adv-x="770" d="M-72 954q150 309 228 512l22 19q98 4 211 12q-92 -283 -139 -502l-25 -18q-145 -6 -297 -23zM266 965q135 266 228 503l20 21l211 12q-100 -311 -137 -495l-17 -21q-162 -8 -305 -20z" />
<glyph unicode="&#x201d;" horiz-adv-x="808" d="M-25 956q51 170 136 498l16 21q158 8 305 20q-129 -246 -227 -504l-25 -20zM309 963q92 281 140 501l24 19q143 6 295 22q-164 -342 -225 -512l-23 -18q-98 -4 -211 -12z" />
<glyph unicode="&#x201e;" horiz-adv-x="817" d="M35 -311q51 168 135 495l16 21q158 8 306 20q-130 -246 -228 -504l-24 -20q-57 -2 -205 -12zM369 -307q94 289 139 502l24 18q111 6 295 23q-147 -309 -225 -510l-20 -19z" />
<glyph unicode="&#x2022;" horiz-adv-x="716" d="M92 690q-2 92 78 157.5t195 65.5t192.5 -68.5t79.5 -160.5q2 -94 -77.5 -159.5t-194.5 -65.5t-193 69.5t-80 161.5z" />
<glyph unicode="&#x2026;" horiz-adv-x="2152" d="M176 57q0 43 41 77t113 34q63 0 98 -28.5t35 -67.5q0 -43 -41 -77t-111 -34q-66 0 -100.5 27.5t-34.5 68.5zM905 74q0 45 39 77.5t107 32.5q137 0 137 -96q0 -43 -39 -75.5t-107 -32.5q-137 0 -137 94zM1628 94q0 43 48 76t104 33q137 0 137 -97q0 -43 -37 -73 q-40 -37 -106 -37q-61 0 -102.5 27.5t-43.5 70.5z" />
<glyph unicode="&#x202f;" horiz-adv-x="358" />
<glyph unicode="&#x2039;" horiz-adv-x="583" d="M25 524v17q72 109 211 358l26 16q61 0 236 3q-117 -164 -240 -375q72 -115 238 -387l-228 -4l-24 16q-80 143 -219 356z" />
<glyph unicode="&#x203a;" horiz-adv-x="581" d="M59 150q125 176 240 374q-2 4 -236 385q147 4 226 6l26 -16q61 -117 217 -354v-17q-116 -192 -210 -360l-27 -16q-59 0 -236 -2z" />
<glyph unicode="&#x205f;" horiz-adv-x="448" />
<glyph unicode="&#x20ac;" horiz-adv-x="1345" d="M-94 735l49 191h111q74 229 279.5 356t508.5 127q172 0 358 -57q2 0 -34 -226l-152 82q-113 35 -180 35q-356 0 -477 -317h770l-52 -193l-759 2q-2 -34 -2 -69h772l-49 -191h-697q98 -326 459 -325q111 0 211 40q84 35 242 136q-18 -168 -25 -240l-14 -16 q-209 -96 -453 -97q-293 0 -482.5 133.5t-244.5 370.5h-133l47 189h68q0 35 2 69h-123z" />
<glyph unicode="&#x2122;" horiz-adv-x="1458" d="M-55 1272l2 80l565 8l-4 -76l-201 -6l-10 -545l-129 -2l8 545zM582 719l14 624l176 3l168 -494l184 500l176 2l-14 -625l-125 -2l17 496l-185 -498l-121 -2l-159 485l-4 -487z" />
<glyph unicode="&#xe000;" horiz-adv-x="1034" d="M0 0v1034h1034v-1034h-1034z" />
</font>
</defs>
</svg>
